<?xml version="1.0" encoding="UTF-8"?>
<svg id="Layer_1" data-name="Layer 1" xmlns="http://www.w3.org/2000/svg" viewBox="0 0 324.39 259.46">
  <path d="m139.56,96.22v30.84c-1.16-2.35-2.95-4.38-2.93-7.2.07-9.52.14-19.03,0-28.55-.02-1.72-.79-3.54-1.61-5.11-3.7-7.05-8.74-12.77-16.35-15.81-.07-.03-.1-.14-.23-.32.53,0,.97,0,1.42,0,8.79,0,17.59.02,26.38-.02,1.04,0,1.65.25,2.18,1.22,18.18,33.11,36.4,66.21,54.62,99.3,3.36,6.11,6.74,12.21,10.2,18.49.39-.51.71-.88.97-1.29,15.24-23.39,30.46-46.78,45.7-70.17,10.07-15.46,20.14-30.93,30.25-46.37.33-.51,1.04-1.1,1.58-1.11,10.86-.06,21.72-.05,32.66.18-.37.14-.73.28-1.11.41-6.67,2.34-12.39,5.91-15.98,12.27-.98,1.74-1.42,3.57-1.42,5.62.03,23.95-.01,47.9-.03,71.85-.01,14.79-.02,29.59-.05,44.38-.02,11.48.07,22.97-.17,34.44-.1,4.48,1.69,7.88,4.54,10.96,3.4,3.68,7.6,6.16,12.26,7.92.53.2,1.05.39,1.56.78h-58.66c.74-.31,1.2-.52,1.67-.69,6.08-2.29,11.37-5.65,15.01-11.22,1.42-2.17,2.1-4.52,2.09-7.16-.06-13.14-.04-26.28-.02-39.41.03-30.88.06-61.76.11-92.64,0-6.77.07-13.55.1-20.32,0-.49-.05-.99-.09-1.95-2.16,3.3-4.07,6.22-5.97,9.14-18.44,28.27-36.88,56.54-55.32,84.82-2.48,3.81-4.93,7.65-7.46,11.43-.6.89-.5,1.46.05,2.32,4.71,7.47,9.51,14.9,13.99,22.51,3.11,5.27,5.27,10.95,6.13,17.1,1.83,13.07-8.28,25.75-21.43,26.55-2.75.17-5.63.09-8.31-.51-8.33-1.88-17.03-10.56-17.69-21.04-.41-6.48,1.37-12.4,4.32-17.99,2.56-4.84,5.47-9.48,8.27-14.19.4-.67.69-1.19.09-1.91-8.22-9.92-13.61-21.56-19.81-32.7-13.7-24.61-27.28-49.28-40.91-73.93-.12-.21-.25-.41-.57-.91Zm63.4,111.14c-.92,1.46-1.67,2.62-2.38,3.8-3.49,5.8-6.94,11.63-8.72,18.24-1.9,7.01-1.14,13.58,3.93,19.12,5.41,5.92,14.52,5.39,18.97-.99,2.44-3.49,3.11-7.37,2.17-11.51-1.08-4.78-3.17-9.16-5.47-13.44-2.71-5.03-5.56-9.98-8.5-15.22Z"/>
  <path d="m117.96,258.9c7.13-2.92,12.25-7.63,16.03-13.87,1.66-2.74,2.55-5.63,2.5-8.94-.14-10.19-.05-20.38-.05-30.57,0-2.27,0-4.54,0-6.86,2.36.64,2.91,1.32,2.91,3.36-.03,11.48-.01,22.96-.15,34.44-.03,2.71.66,5.1,1.94,7.37,3.82,6.78,9.13,11.94,16.84,15.06h-40.02Z"/>
  <path d="m156.32,189.78c-2.17-2.75-4.18-5.67-5.93-8.7-6-10.38-10.09-21.6-13.98-32.89-3.03-8.78-5.72-17.68-10.24-25.89-7.06-12.84-17.04-22.37-30.84-27.65-10.01-3.83-20.47-5.27-31.11-5.71-2.1-.09-4.21-.17-6.45-.26L120.06,9.35c3.56-3.12,7.67-5.46,12.57-6.4,4.79-.92,9.73-1.06,14.61-1.47,1.03-.09,1.61-.23,1.18-1.47h-45.68c.04.52.07.94.11,1.44.81,0,1.49-.09,2.14.01,2.99.46,6.07.68,8.94,1.56,2.91.88,3.82,3.12,2.62,5.91-.03.07-72.07,91.86-72.07,91.86v-.5c0-27.57,0-55.14,0-82.71,0-.98.01-1.97.07-2.95.46-8.03,3.39-11.39,11.32-12.57,3.16-.47,6.38-.52,9.58-.69,1.07-.05,1.37-.42,1.03-1.38H.1c-.04,1.43-.03,1.34,1.29,1.46,4.26.39,8.57.54,12.74,1.36,4.17.82,6.68,3.79,7.4,8.03.38,2.23.62,4.52.62,6.78.03,54.83.03,109.66.01,164.49,0,1.8-.12,3.62-.34,5.41-.67,5.52-3.24,8.68-8.65,9.73-3.87.76-7.89.82-11.85,1.12-.98.07-1.67.13-1.16,1.42h66.38c.44-1.11.01-1.35-1.02-1.42-4.06-.29-8.15-.47-12.16-1.12-3.47-.56-6.35-2.45-7.51-5.97-.72-2.18-1.25-4.53-1.26-6.81-.1-26.31-.09-52.62-.07-78.93l12.01-15.3c.08,0,.16,0,.25.02,3.27.48,6.59.7,9.8,1.45,12.92,3.01,22.85,10.52,30.74,20.94,7.3,9.64,12.06,20.55,15.47,32.07,3.32,11.22,7.75,21.91,14.77,31.38,8.11,10.92,18.37,18.8,31.7,22.29,3.75.98,7.56,1.58,11.51,1.43v-1.25c-6.89-1.38-10.05-3.19-14.45-8.78Z"/>
</svg>